<?xml version="1.0" encoding="UTF-8"?>
<!DOCTYPE svg PUBLIC "-//W3C//DTD SVG 1.1//EN" "http://www.w3.org/Graphics/SVG/1.1/DTD/svg11.dtd">
<!-- Creator: CorelDRAW X7 -->
<svg xmlns="http://www.w3.org/2000/svg" xml:space="preserve" width="11.0066mm" height="11.0066mm" version="1.1" style="shape-rendering:geometricPrecision; text-rendering:geometricPrecision; image-rendering:optimizeQuality; fill-rule:evenodd; clip-rule:evenodd"
viewBox="0 0 1101 1101"
 xmlns:xlink="http://www.w3.org/1999/xlink">
 <defs>
  <style type="text/css">
   <![CDATA[
    .str2 {stroke:white;stroke-width:84.66}
    .str1 {stroke:white;stroke-width:33.86}
    .str0 {stroke:white;stroke-width:16.93}
    .fil4 {fill:none}
    .fil0 {fill:#4D4D4D}
    .fil3 {fill:#DC0000}
    .fil2 {fill:#EBEBEB}
    .fil1 {fill:white}
   ]]>
  </style>
 </defs>
 <g id="Camada_x0020_1">
  <metadata id="CorelCorpID_0Corel-Layer"/>
  <path class="fil0 str0" d="M127 717c33,-72 145,-128 288,-143l0 -30c-55,-32 -92,-98 -92,-173 0,-108 76,-195 169,-195 94,0 170,87 170,195 0,76 -39,142 -95,174l0 29c142,15 254,71 287,143 1,27 1,54 1,82l0 168 -728 0 0 -165c0,-8 0,-75 0,-85z"/>
  <g id="_230632896">
   <circle class="fil0 str1" cx="887" cy="798" r="180"/>
   <path class="fil1" d="M782 779l87 0 0 -86c0,-11 8,-19 18,-19l0 0c11,0 19,8 19,19l0 86 86 0c11,0 19,8 19,19l0 0c0,10 -8,18 -19,18l-86 0 0 87c0,10 -8,18 -19,18l0 0c-10,0 -18,-8 -18,-18l0 -87 -87 0c-10,0 -18,-8 -18,-18l0 0c0,-11 8,-19 18,-19z"/>
  </g>
  <path class="fil1" d="M622 645l-76 208 -4 -13 -4 -110 -34 25 -17 0 -30 -25 -13 118 -84 -203c90,-23 178,-21 262,0zm-168 25c0,-9 2,-15 14,-18 13,-3 37,-3 51,0 13,3 16,9 18,17 2,9 3,20 -3,31 -6,11 -20,23 -30,28 -9,5 -13,3 -21,-2 -7,-5 -19,-13 -24,-24 -6,-10 -6,-23 -5,-32z"/>
  <g id="_230991776">
   <rect class="fil2" x="-3995" y="-262" width="1101" height="1101"/>
   <path class="fil0 str0" d="M-3867 455c32,-72 145,-129 287,-144l0 -29c-54,-33 -92,-98 -92,-174 0,-107 76,-194 170,-194 93,0 169,87 169,194 0,77 -39,143 -94,175l0 28c141,16 254,72 286,144 2,27 2,54 1,82l0 168 -728 0 0 -165c1,-8 0,-75 1,-85z"/>
   <g>
    <circle class="fil0 str1" cx="-3107" cy="535" r="180"/>
    <path class="fil1" d="M-3212 517l86 0 0 -87c0,-10 9,-18 19,-18l0 0c10,0 18,8 18,18l0 87 87 0c10,0 18,8 18,18l0 0c0,11 -8,19 -18,19l-87 0 0 86c0,11 -8,19 -18,19l0 0c-10,0 -19,-8 -19,-19l0 -86 -86 0c-10,0 -19,-8 -19,-19l0 0c0,-10 9,-18 19,-18z"/>
   </g>
  </g>
  <g id="_230991616">
   <rect class="fil2" x="-4114" y="-1681" width="1101" height="1101"/>
   <path class="fil0 str0" d="M-4067 -997c26,-58 118,-104 234,-117l0 -24c-45,-26 -75,-79 -75,-141 0,-88 62,-159 138,-159 76,0 138,71 138,159 0,62 -32,116 -77,142l0 23c115,13 207,59 233,117 2,22 2,44 1,67l0 137 -593 0 0 -135c1,-6 0,-60 1,-69z"/>
   <path class="fil0 str0" d="M-3673 -997c26,-58 118,-104 234,-117l0 -24c-45,-26 -75,-79 -75,-141 0,-88 62,-159 138,-159 76,0 138,71 138,159 0,62 -31,116 -77,142l0 23c116,13 207,59 233,117 2,22 2,44 1,67l0 137 -593 0 0 -135c1,-6 0,-60 1,-69z"/>
   <path class="fil0 str0" d="M-3859 -866c26,-59 118,-105 234,-117l0 -24c-45,-26 -75,-80 -75,-141 0,-88 62,-159 138,-159 76,0 138,71 138,159 0,62 -32,116 -77,142l0 23c115,13 207,59 233,117 1,22 2,44 1,67l0 137 -593 0 0 -135c1,-6 0,-61 1,-69z"/>
   <g>
    <circle class="fil0 str1" cx="-3270" cy="-846" r="180"/>
    <path class="fil1" d="M-3375 -864l86 0 0 -87c0,-10 9,-18 19,-18l0 0c10,0 18,8 18,18l0 87 87 0c10,0 18,8 18,18l0 0c0,10 -8,19 -18,19l-87 0 0 86c0,10 -8,19 -18,19l0 0c-10,0 -19,-9 -19,-19l0 -86 -86 0c-10,0 -19,-9 -19,-19l0 0c0,-10 9,-18 19,-18z"/>
   </g>
  </g>
  <g id="_230991200">
   <rect class="fil3" x="1193" y="-2642" width="1101" height="1101" rx="224" ry="213"/>
   <path class="fil4 str2" d="M1610 -2398c-110,52 -181,163 -181,285 0,174 140,315 314,315 174,0 315,-141 315,-315 0,-123 -73,-236 -186,-286"/>
   <line class="fil4 str2" x1="1743" y1="-2490" x2="1743" y2= "-2150" />
  </g>
  <rect class="fil2" x="-707" y="-1786" width="1101" height="1101"/>
  <path class="fil0 str0" d="M-660 -1102c26,-58 118,-105 234,-117l0 -24c-44,-26 -75,-80 -75,-141 0,-88 62,-159 138,-159 76,0 138,71 138,159 0,62 -31,116 -77,142l0 23c116,13 207,59 233,117 2,22 2,44 2,67l0 137 -593 0 0 -135c0,-6 -1,-61 0,-69z"/>
  <path class="fil0 str0" d="M-266 -1102c26,-58 118,-105 234,-117l0 -24c-44,-26 -75,-80 -75,-141 0,-88 62,-159 138,-159 76,0 138,71 138,159 0,62 -31,116 -77,142l0 23c116,13 207,59 233,117 2,22 2,44 2,67l0 137 -593 0 0 -135c0,-6 -1,-61 0,-69z"/>
  <path class="fil0 str0" d="M-452 -971c26,-59 118,-105 234,-117l0 -24c-45,-26 -75,-80 -75,-141 0,-88 62,-159 138,-159 76,0 138,71 138,159 0,62 -31,116 -77,142l0 23c116,13 207,58 233,117 2,22 2,44 2,67l0 137 -594 0 0 -135c1,-6 0,-61 1,-69z"/>
 </g>
</svg>
