<?xml version="1.0" encoding="UTF-8"?>
<!DOCTYPE svg PUBLIC "-//W3C//DTD SVG 1.1//EN" "http://www.w3.org/Graphics/SVG/1.1/DTD/svg11.dtd">
<!-- Creator: CorelDRAW X7 -->
<svg xmlns="http://www.w3.org/2000/svg" xml:space="preserve" width="11.0066mm" height="11.0066mm" version="1.1" style="shape-rendering:geometricPrecision; text-rendering:geometricPrecision; image-rendering:optimizeQuality; fill-rule:evenodd; clip-rule:evenodd"
viewBox="0 0 1101 1101"
 xmlns:xlink="http://www.w3.org/1999/xlink">
 <defs>
  <style type="text/css">
   <![CDATA[
    .str1 {stroke:white;stroke-width:33.86}
    .str0 {stroke:white;stroke-width:16.93}
    .fil1 {fill:#4D4D4D}
    .fil0 {fill:#EBEBEB}
    .fil2 {fill:white}
   ]]>
  </style>
 </defs>
 <g id="Camada_x0020_1">
  <metadata id="CorelCorpID_0Corel-Layer"/>
  <g id="_234893248">
   <rect class="fil0" width="1101" height="1101"/>
   <path class="fil1 str0" d="M127 717c33,-72 145,-128 288,-143l0 -30c-55,-32 -92,-98 -92,-173 0,-108 76,-195 169,-195 94,0 170,87 170,195 0,76 -39,142 -95,174l0 29c142,15 254,71 287,143 1,27 1,54 1,82l0 168 -728 0 0 -165c0,-8 0,-75 0,-85z"/>
   <g>
    <circle class="fil1 str1" cx="887" cy="798" r="180"/>
    <path class="fil2" d="M782 779l87 0 0 -86c0,-11 8,-19 18,-19l0 0c11,0 19,8 19,19l0 86 86 0c11,0 19,8 19,19l0 0c0,10 -8,18 -19,18l-86 0 0 87c0,10 -8,18 -19,18l0 0c-10,0 -18,-8 -18,-18l0 -87 -87 0c-10,0 -18,-8 -18,-18l0 0c0,-11 8,-19 18,-19z"/>
   </g>
   <path class="fil2" d="M622 645l-76 208 -4 -13 -4 -110 -34 25 -17 0 -30 -25 -12 118 -85 -203c90,-23 178,-21 262,0zm-168 25c0,-9 2,-15 14,-18 13,-3 37,-3 51,0 13,3 16,9 18,17 2,9 3,20 -3,31 -6,11 -20,23 -30,28 -9,5 -13,3 -21,-2 -7,-5 -19,-13 -24,-24 -6,-10 -6,-23 -5,-32z"/>
  </g>
  <g id="_235153264">
   <rect class="fil0" x="-4074" y="-24" width="1101" height="1101"/>
   <path class="fil1 str0" d="M-3946 694c32,-72 145,-129 287,-144l0 -30c-54,-32 -92,-97 -92,-173 0,-107 76,-195 170,-195 93,0 169,88 169,195 0,77 -38,143 -94,175l0 28c141,15 254,72 286,144 2,27 2,53 1,82l0 167 -728 0 0 -165c1,-7 0,-74 1,-84z"/>
   <g>
    <circle class="fil1 str1" cx="-3186" cy="774" r="180"/>
    <path class="fil2" d="M-3291 755l86 0 0 -86c0,-10 9,-18 19,-18l0 0c10,0 18,8 18,18l0 86 87 0c10,0 18,9 18,19l0 0c0,10 -8,19 -18,19l-87 0 0 86c0,10 -8,19 -18,19l0 0c-10,0 -19,-9 -19,-19l0 -86 -86 0c-10,0 -19,-9 -19,-19l0 0c0,-10 9,-19 19,-19z"/>
   </g>
  </g>
  <g id="_234900352">
   <rect class="fil0" x="-4114" y="-1681" width="1101" height="1101"/>
   <path class="fil1 str0" d="M-4067 -997c26,-58 118,-104 234,-117l0 -24c-45,-26 -75,-79 -75,-141 0,-88 62,-159 138,-159 76,0 138,71 138,159 0,62 -32,116 -77,142l0 23c115,13 207,59 233,117 2,22 2,44 1,67l0 137 -593 0 0 -135c1,-6 0,-60 1,-69z"/>
   <path class="fil1 str0" d="M-3673 -997c26,-58 118,-104 234,-117l0 -24c-45,-26 -75,-79 -75,-141 0,-88 62,-159 138,-159 76,0 138,71 138,159 0,62 -31,116 -77,142l0 23c116,13 207,59 233,117 2,22 2,44 1,67l0 137 -593 0 0 -135c1,-6 0,-60 1,-69z"/>
   <path class="fil1 str0" d="M-3859 -866c26,-59 118,-105 234,-117l0 -24c-45,-26 -75,-80 -75,-141 0,-88 62,-159 138,-159 76,0 138,71 138,159 0,62 -32,116 -77,142l0 23c115,13 207,59 233,117 1,22 2,44 1,67l0 137 -593 0 0 -135c1,-6 0,-61 1,-69z"/>
   <g>
    <circle class="fil1 str1" cx="-3270" cy="-846" r="180"/>
    <path class="fil2" d="M-3375 -864l86 0 0 -87c0,-10 9,-18 19,-18l0 0c10,0 18,8 18,18l0 87 87 0c10,0 18,8 18,18l0 0c0,10 -8,19 -18,19l-87 0 0 86c0,10 -8,19 -18,19l0 0c-10,0 -19,-9 -19,-19l0 -86 -86 0c-10,0 -19,-9 -19,-19l0 0c0,-10 9,-18 19,-18z"/>
   </g>
  </g>
 </g>
</svg>
