<?xml version="1.0" encoding="UTF-8"?>
<!DOCTYPE svg PUBLIC "-//W3C//DTD SVG 1.1//EN" "http://www.w3.org/Graphics/SVG/1.1/DTD/svg11.dtd">
<!-- Creator: CorelDRAW X7 -->
<svg xmlns="http://www.w3.org/2000/svg" xml:space="preserve" width="11.0066mm" height="11.0066mm" version="1.1" style="shape-rendering:geometricPrecision; text-rendering:geometricPrecision; image-rendering:optimizeQuality; fill-rule:evenodd; clip-rule:evenodd"
viewBox="0 0 1101 1101"
 xmlns:xlink="http://www.w3.org/1999/xlink">
 <defs>
  <style type="text/css">
   <![CDATA[
    .str1 {stroke:white;stroke-width:33.86}
    .str0 {stroke:white;stroke-width:16.93}
    .fil1 {fill:#4D4D4D}
    .fil0 {fill:#EBEBEB}
    .fil2 {fill:white}
   ]]>
  </style>
 </defs>
 <g id="Camada_x0020_1">
  <metadata id="CorelCorpID_0Corel-Layer"/>
  <g id="_230454416">
   <rect class="fil0" width="1101" height="1101"/>
   <path class="fil1 str0" d="M47 684c26,-59 118,-105 234,-117l0 -24c-44,-26 -75,-80 -75,-141 0,-88 62,-159 138,-159 76,0 138,71 138,159 0,62 -31,116 -77,142l0 23c116,12 207,58 233,117 2,22 2,44 2,67l0 136 -593 0 0 -134c0,-6 -1,-61 0,-69z"/>
   <path class="fil1 str0" d="M441 684c26,-59 118,-105 234,-117l0 -24c-44,-26 -75,-80 -75,-141 0,-88 62,-159 138,-159 76,0 138,71 138,159 0,62 -31,116 -77,142l0 23c116,12 207,58 233,117 2,22 2,44 2,67l0 136 -593 0 0 -134c0,-6 -1,-61 0,-69z"/>
   <path class="fil1 str0" d="M255 815c26,-59 118,-105 234,-117l0 -24c-44,-27 -75,-80 -75,-142 0,-87 62,-158 138,-158 76,0 138,71 138,158 0,63 -31,117 -77,143l0 23c116,12 207,58 233,117 2,22 2,44 2,67l0 136 -594 0 0 -134c1,-6 0,-61 1,-69z"/>
   <g>
    <circle class="fil1 str1" cx="844" cy="835" r="180"/>
    <path class="fil2" d="M739 816l87 0 0 -86c0,-11 8,-19 18,-19l0 0c10,0 19,8 19,19l0 86 86 0c10,0 19,8 19,19l0 0c0,10 -9,18 -19,18l-86 0 0 87c0,10 -9,18 -19,18l0 0c-10,0 -18,-8 -18,-18l0 -87 -87 0c-10,0 -18,-8 -18,-18l0 0c0,-11 8,-19 18,-19z"/>
   </g>
  </g>
  <g id="_230455472">
   <rect class="fil0" x="1346" y="-1917" width="1101" height="1101"/>
   <path class="fil1 str0" d="M1474 -1200c32,-72 145,-128 287,-143l0 -30c-55,-32 -92,-98 -92,-173 0,-108 76,-195 169,-195 94,0 170,87 170,195 0,76 -39,143 -95,174l0 29c142,15 254,71 287,143 1,27 2,54 1,82l0 168 -728 0 0 -165c1,-8 0,-75 1,-85z"/>
   <g>
    <circle class="fil1 str1" cx="2234" cy="-1119" r="180"/>
    <path class="fil2" d="M2129 -1138l86 0 0 -86c0,-10 8,-19 19,-19l0 0c10,0 18,9 18,19l0 86 87 0c10,0 18,9 18,19l0 0c0,10 -8,18 -18,18l-87 0 0 87c0,10 -8,18 -18,18l0 0c-11,0 -19,-8 -19,-18l0 -87 -86 0c-11,0 -19,-8 -19,-18l0 0c0,-10 8,-19 19,-19z"/>
   </g>
   <path class="fil2" d="M1969 -1272l-77 208 -4 -13 -4 -110 -34 25 -17 0 -30 -25 -12 118 -85 -203c91,-23 178,-21 263,0zm-169 25c1,-9 2,-15 15,-18 12,-3 36,-3 50,0 13,3 16,9 18,17 2,9 4,20 -3,31 -6,12 -20,23 -29,28 -9,5 -14,3 -21,-2 -8,-5 -19,-13 -25,-24 -6,-10 -6,-23 -5,-32z"/>
  </g>
  <g id="_230456720">
   <rect class="fil0" x="-4074" y="-24" width="1101" height="1101"/>
   <path class="fil1 str0" d="M-3946 694c32,-72 145,-129 287,-144l0 -30c-54,-32 -92,-97 -92,-173 0,-107 76,-195 170,-195 93,0 169,88 169,195 0,77 -38,143 -94,175l0 28c141,15 254,72 286,144 2,27 2,53 1,82l0 167 -728 0 0 -165c1,-7 0,-74 1,-84z"/>
   <g>
    <circle class="fil1 str1" cx="-3186" cy="774" r="180"/>
    <path class="fil2" d="M-3291 755l86 0 0 -86c0,-10 9,-18 19,-18l0 0c10,0 18,8 18,18l0 86 87 0c10,0 18,9 18,19l0 0c0,10 -8,19 -18,19l-87 0 0 86c0,10 -8,19 -18,19l0 0c-10,0 -19,-9 -19,-19l0 -86 -86 0c-10,0 -19,-9 -19,-19l0 0c0,-10 9,-19 19,-19z"/>
   </g>
  </g>
 </g>
</svg>
