<?xml version="1.0" encoding="UTF-8"?>
<!DOCTYPE svg PUBLIC "-//W3C//DTD SVG 1.1//EN" "http://www.w3.org/Graphics/SVG/1.1/DTD/svg11.dtd">
<!-- Creator: CorelDRAW X7 -->
<svg xmlns="http://www.w3.org/2000/svg" xml:space="preserve" width="11.0066mm" height="11.0066mm" version="1.1" style="shape-rendering:geometricPrecision; text-rendering:geometricPrecision; image-rendering:optimizeQuality; fill-rule:evenodd; clip-rule:evenodd"
viewBox="0 0 1101 1101"
 xmlns:xlink="http://www.w3.org/1999/xlink">
 <defs>
  <style type="text/css">
   <![CDATA[
    .str2 {stroke:white;stroke-width:84.66}
    .str1 {stroke:white;stroke-width:33.86}
    .str0 {stroke:white;stroke-width:16.93}
    .fil4 {fill:none}
    .fil0 {fill:#4D4D4D}
    .fil3 {fill:#DC0000}
    .fil2 {fill:#EBEBEB}
    .fil1 {fill:white}
   ]]>
  </style>
 </defs>
 <g id="Camada_x0020_1">
  <metadata id="CorelCorpID_0Corel-Layer"/>
  <path class="fil0 str0" d="M127 717c33,-72 145,-128 288,-143l0 -30c-55,-32 -92,-98 -92,-173 0,-108 76,-195 169,-195 94,0 170,87 170,195 0,76 -39,142 -95,174l0 29c142,15 254,71 287,143 1,27 1,54 1,82l0 168 -728 0 0 -165c0,-8 0,-75 0,-85z"/>
  <g id="_232770336">
   <circle class="fil0 str1" cx="887" cy="798" r="180"/>
   <path class="fil1" d="M782 779l87 0 0 -86c0,-11 8,-19 18,-19l0 0c11,0 19,8 19,19l0 86 86 0c11,0 19,8 19,19l0 0c0,10 -8,18 -19,18l-86 0 0 87c0,10 -8,18 -19,18l0 0c-10,0 -18,-8 -18,-18l0 -87 -87 0c-10,0 -18,-8 -18,-18l0 0c0,-11 8,-19 18,-19z"/>
  </g>
  <g id="_231245168">
   <rect class="fil2" x="-4114" y="-1681" width="1101" height="1101"/>
   <path class="fil0 str0" d="M-4067 -997c26,-58 118,-104 234,-117l0 -24c-45,-26 -75,-79 -75,-141 0,-88 62,-159 138,-159 76,0 138,71 138,159 0,62 -32,116 -77,142l0 23c115,13 207,59 233,117 2,22 2,44 1,67l0 137 -593 0 0 -135c1,-6 0,-60 1,-69z"/>
   <path class="fil0 str0" d="M-3673 -997c26,-58 118,-104 234,-117l0 -24c-45,-26 -75,-79 -75,-141 0,-88 62,-159 138,-159 76,0 138,71 138,159 0,62 -31,116 -77,142l0 23c116,13 207,59 233,117 2,22 2,44 1,67l0 137 -593 0 0 -135c1,-6 0,-60 1,-69z"/>
   <path class="fil0 str0" d="M-3859 -866c26,-59 118,-105 234,-117l0 -24c-45,-26 -75,-80 -75,-141 0,-88 62,-159 138,-159 76,0 138,71 138,159 0,62 -32,116 -77,142l0 23c115,13 207,59 233,117 1,22 2,44 1,67l0 137 -593 0 0 -135c1,-6 0,-61 1,-69z"/>
   <g>
    <circle class="fil0 str1" cx="-3270" cy="-846" r="180"/>
    <path class="fil1" d="M-3375 -864l86 0 0 -87c0,-10 9,-18 19,-18l0 0c10,0 18,8 18,18l0 87 87 0c10,0 18,8 18,18l0 0c0,10 -8,19 -18,19l-87 0 0 86c0,10 -8,19 -18,19l0 0c-10,0 -19,-9 -19,-19l0 -86 -86 0c-10,0 -19,-9 -19,-19l0 0c0,-10 9,-18 19,-18z"/>
   </g>
  </g>
  <g id="_231244048">
   <rect class="fil2" x="-2770" y="-1681" width="1101" height="1101"/>
   <path class="fil0 str0" d="M-2642 -963c32,-72 145,-129 287,-144l0 -30c-55,-32 -92,-97 -92,-173 0,-107 76,-195 169,-195 94,0 170,88 170,195 0,77 -39,143 -95,175l0 28c142,15 254,72 287,144 1,27 2,53 1,82l0 167 -728 0 0 -165c1,-7 0,-74 1,-84z"/>
   <g>
    <circle class="fil0 str1" cx="-1882" cy="-883" r="180"/>
    <path class="fil1" d="M-1987 -902l86 0 0 -86c0,-10 8,-19 19,-19l0 0c10,0 18,9 18,19l0 86 87 0c10,0 18,9 18,19l0 0c0,10 -8,18 -18,18l-87 0 0 87c0,10 -8,18 -18,18l0 0c-11,0 -19,-8 -19,-18l0 -87 -86 0c-10,0 -19,-8 -19,-18l0 0c0,-10 9,-19 19,-19z"/>
   </g>
   <path class="fil1" d="M-2147 -1036l-77 208 -4 -13 -4 -110 -34 26 -17 0 -30 -26 -12 119 -85 -204c91,-23 178,-21 263,0zm-169 25c1,-9 2,-15 15,-17 12,-3 36,-3 50,0 13,2 16,8 18,16 2,9 4,20 -3,32 -6,11 -20,22 -29,27 -9,5 -14,4 -21,-1 -8,-5 -19,-14 -25,-24 -6,-11 -6,-24 -5,-33z"/>
  </g>
  <rect class="fil3" x="888" y="-2177" width="1101" height="1101" rx="224" ry="213"/>
  <path class="fil4 str2" d="M1306 -1932c-111,52 -182,163 -182,285 0,174 141,315 314,315 174,0 315,-141 315,-315 0,-124 -73,-236 -185,-287"/>
  <line class="fil4 str2" x1="1438" y1="-2024" x2="1438" y2= "-1684" />
  <rect class="fil2" x="-707" y="-1786" width="1101" height="1101"/>
  <path class="fil0 str0" d="M-660 -1102c26,-58 118,-105 234,-117l0 -24c-44,-26 -75,-80 -75,-141 0,-88 62,-159 138,-159 76,0 138,71 138,159 0,62 -31,116 -77,142l0 23c116,13 207,59 233,117 2,22 2,44 2,67l0 137 -593 0 0 -135c0,-6 -1,-61 0,-69z"/>
  <path class="fil0 str0" d="M-266 -1102c26,-58 118,-105 234,-117l0 -24c-44,-26 -75,-80 -75,-141 0,-88 62,-159 138,-159 76,0 138,71 138,159 0,62 -31,116 -77,142l0 23c116,13 207,59 233,117 2,22 2,44 2,67l0 137 -593 0 0 -135c0,-6 -1,-61 0,-69z"/>
  <path class="fil0 str0" d="M-452 -971c26,-59 118,-105 234,-117l0 -24c-45,-26 -75,-80 -75,-141 0,-88 62,-159 138,-159 76,0 138,71 138,159 0,62 -31,116 -77,142l0 23c116,13 207,58 233,117 2,22 2,44 2,67l0 137 -594 0 0 -135c1,-6 0,-61 1,-69z"/>
 </g>
</svg>
