<?xml version="1.0" encoding="UTF-8"?>
<!DOCTYPE svg PUBLIC "-//W3C//DTD SVG 1.1//EN" "http://www.w3.org/Graphics/SVG/1.1/DTD/svg11.dtd">
<!-- Creator: CorelDRAW X7 -->
<svg xmlns="http://www.w3.org/2000/svg" xml:space="preserve" width="11.0066mm" height="11.0066mm" version="1.1" style="shape-rendering:geometricPrecision; text-rendering:geometricPrecision; image-rendering:optimizeQuality; fill-rule:evenodd; clip-rule:evenodd"
viewBox="0 0 1101 1101"
 xmlns:xlink="http://www.w3.org/1999/xlink">
 <defs>
  <style type="text/css">
   <![CDATA[
    .str2 {stroke:white;stroke-width:84.66}
    .str1 {stroke:white;stroke-width:33.86}
    .str0 {stroke:white;stroke-width:16.93}
    .fil4 {fill:none}
    .fil6 {fill:black}
    .fil1 {fill:#4D4D4D}
    .fil3 {fill:#DC0000}
    .fil0 {fill:#EBEBEB}
    .fil2 {fill:white}
    .fil5 {fill:#4D4D4D;fill-rule:nonzero}
   ]]>
  </style>
   <mask id="id0">
  <linearGradient id="id1" gradientUnits="userSpaceOnUse" x1="-462.94" y1="-1535.73" x2="-469.4" y2="-1071.21">
   <stop offset="0" style="stop-opacity:1; stop-color:white"/>
   <stop offset="1" style="stop-opacity:0; stop-color:white"/>
  </linearGradient>
    <rect style="fill:url(#id1)" x="-686" y="-1541" width="439" height="476"/>
   </mask>
   <mask id="id2">
  <linearGradient id="id3" gradientUnits="userSpaceOnUse" x1="-29.42" y1="-1442.29" x2="-23.7" y2="-978.43">
   <stop offset="0" style="stop-opacity:1; stop-color:white"/>
   <stop offset="1" style="stop-opacity:0; stop-color:white"/>
  </linearGradient>
    <rect style="fill:url(#id3)" x="-246" y="-1448" width="439" height="476"/>
   </mask>
 </defs>
 <g id="Camada_x0020_1">
  <metadata id="CorelCorpID_0Corel-Layer"/>
  <g id="_755437408">
   <rect class="fil0" x="-3995" y="-262" width="1101" height="1101"/>
   <path class="fil1 str0" d="M-3867 455c32,-72 145,-129 287,-144l0 -29c-54,-33 -92,-98 -92,-174 0,-107 76,-194 170,-194 93,0 169,87 169,194 0,77 -39,143 -94,175l0 28c141,16 254,72 286,144 2,27 2,54 1,82l0 168 -728 0 0 -165c1,-8 0,-75 1,-85z"/>
   <g>
    <circle class="fil1 str1" cx="-3107" cy="535" r="180"/>
    <path class="fil2" d="M-3212 517l86 0 0 -87c0,-10 9,-18 19,-18l0 0c10,0 18,8 18,18l0 87 87 0c10,0 18,8 18,18l0 0c0,11 -8,19 -18,19l-87 0 0 86c0,11 -8,19 -18,19l0 0c-10,0 -19,-8 -19,-19l0 -86 -86 0c-10,0 -19,-8 -19,-19l0 0c0,-10 9,-18 19,-18z"/>
   </g>
  </g>
  <g id="_755429056">
   <rect class="fil0" x="-4114" y="-1681" width="1101" height="1101"/>
   <path class="fil1 str0" d="M-4067 -997c26,-58 118,-104 234,-117l0 -24c-45,-26 -75,-79 -75,-141 0,-88 62,-159 138,-159 76,0 138,71 138,159 0,62 -32,116 -77,142l0 23c115,13 207,59 233,117 2,22 2,44 1,67l0 137 -593 0 0 -135c1,-6 0,-60 1,-69z"/>
   <path class="fil1 str0" d="M-3673 -997c26,-58 118,-104 234,-117l0 -24c-45,-26 -75,-79 -75,-141 0,-88 62,-159 138,-159 76,0 138,71 138,159 0,62 -31,116 -77,142l0 23c116,13 207,59 233,117 2,22 2,44 1,67l0 137 -593 0 0 -135c1,-6 0,-60 1,-69z"/>
   <path class="fil1 str0" d="M-3859 -866c26,-59 118,-105 234,-117l0 -24c-45,-26 -75,-80 -75,-141 0,-88 62,-159 138,-159 76,0 138,71 138,159 0,62 -32,116 -77,142l0 23c115,13 207,59 233,117 1,22 2,44 1,67l0 137 -593 0 0 -135c1,-6 0,-61 1,-69z"/>
   <g>
    <circle class="fil1 str1" cx="-3270" cy="-846" r="180"/>
    <path class="fil2" d="M-3375 -864l86 0 0 -87c0,-10 9,-18 19,-18l0 0c10,0 18,8 18,18l0 87 87 0c10,0 18,8 18,18l0 0c0,10 -8,19 -18,19l-87 0 0 86c0,10 -8,19 -18,19l0 0c-10,0 -19,-9 -19,-19l0 -86 -86 0c-10,0 -19,-9 -19,-19l0 0c0,-10 9,-18 19,-18z"/>
   </g>
  </g>
  <g id="_755423664">
   <rect class="fil0" x="-2770" y="-1681" width="1101" height="1101"/>
   <path class="fil1 str0" d="M-2642 -963c32,-72 145,-129 287,-144l0 -30c-55,-32 -92,-97 -92,-173 0,-107 76,-195 169,-195 94,0 170,88 170,195 0,77 -39,143 -95,175l0 28c142,15 254,72 287,144 1,27 2,53 1,82l0 167 -728 0 0 -165c1,-7 0,-74 1,-84z"/>
   <g>
    <circle class="fil1 str1" cx="-1882" cy="-883" r="180"/>
    <path class="fil2" d="M-1987 -902l86 0 0 -86c0,-10 8,-19 19,-19l0 0c10,0 18,9 18,19l0 86 87 0c10,0 18,9 18,19l0 0c0,10 -8,18 -18,18l-87 0 0 87c0,10 -8,18 -18,18l0 0c-11,0 -19,-8 -19,-18l0 -87 -86 0c-10,0 -19,-8 -19,-18l0 0c0,-10 9,-19 19,-19z"/>
   </g>
   <path class="fil2" d="M-2147 -1036l-77 208 -4 -13 -4 -110 -34 26 -17 0 -30 -26 -12 119 -85 -204c91,-23 178,-21 263,0zm-169 25c1,-9 2,-15 15,-17 12,-3 36,-3 50,0 13,2 16,8 18,16 2,9 4,20 -3,32 -6,11 -20,22 -29,27 -9,5 -14,4 -21,-1 -8,-5 -19,-14 -25,-24 -6,-11 -6,-24 -5,-33z"/>
  </g>
  <rect class="fil3" x="2685" y="-361" width="1101" height="1101" rx="224" ry="213"/>
  <path class="fil4 str2" d="M3103 -117c-111,52 -182,163 -182,286 0,173 141,314 315,314 173,0 314,-141 314,-314 0,-124 -72,-236 -185,-287"/>
  <line class="fil4 str2" x1="3236" y1="-209" x2="3236" y2= "132" />
  <path class="fil1 str0" style="mask:url(#id0)" d="M-677 -1219c19,-42 84,-75 167,-83l0 -17c-32,-19 -54,-57 -54,-101 0,-62 44,-113 98,-113 55,0 99,51 99,113 0,44 -23,83 -55,101l0 17c82,9 147,41 166,83 1,16 1,31 1,48l0 97 -422 0 0 -96c0,-4 0,-43 0,-49z"/>
  <path class="fil1 str0" d="M-397 -1219c19,-42 85,-75 167,-83l0 -17c-32,-19 -53,-57 -53,-101 0,-62 44,-113 98,-113 54,0 98,51 98,113 0,44 -22,83 -55,101l0 17c83,9 148,41 167,83 0,16 1,31 0,48l0 97 -422 0 0 -96c0,-4 0,-43 0,-49z"/>
  <path class="fil1 str0" d="M-529 -1126c19,-42 84,-74 167,-83l0 -17c-32,-19 -54,-57 -54,-101 0,-62 44,-113 98,-113 55,0 99,51 99,113 0,45 -23,83 -55,101l0 17c82,9 147,41 166,83 1,16 1,31 1,48l0 97 -422 0 0 -96c0,-4 0,-43 0,-49z"/>
  <path class="fil1 str0" d="M-118 -1219c19,-42 84,-75 167,-83l0 -17c-32,-19 -53,-57 -53,-101 0,-62 44,-113 98,-113 54,0 98,51 98,113 0,44 -22,83 -55,101l0 17c83,9 148,41 166,83 1,16 2,31 1,48l0 97 -422 0 0 -96c0,-4 0,-43 0,-49z"/>
  <path class="fil1 str0" style="mask:url(#id2)" d="M-238 -1126c19,-42 85,-74 167,-83l0 -17c-31,-19 -53,-57 -53,-101 0,-62 44,-113 98,-113 54,0 98,51 98,113 0,45 -22,83 -54,101l0 17c82,9 147,41 166,83 1,16 1,31 1,48l0 97 -423 0 0 -96c1,-4 0,-43 0,-49z"/>
  <path class="fil5" d="M-480 -1723l671 0 0 69 156 -104 -156 -105 0 70 -671 0 0 70zm335 0m336 34m78 -17m0 -104m-78 -18m-336 35m-335 35"/>
  <polygon class="fil5" points="-480,-1781 -480,-1556 -427,-1556 -427,-1781 "/>
  <polygon class="fil5" points="-69,-1781 -69,-1555 -16,-1555 -16,-1781 "/>
  <g id="_234549008">
   <path class="fil6" d="M459 536c-43,66 -123,196 -169,269 -45,72 -56,88 -78,85 -22,-2 -54,-21 -43,-67 11,-45 65,-117 120,-196 55,-79 112,-166 146,-217 35,-51 48,-66 86,-51 38,15 101,61 164,106 56,-78 112,-156 149,-201 37,-45 55,-56 71,-53 16,2 30,20 31,38 1,17 -11,33 -48,86 -36,52 -97,140 -132,191 -34,50 -43,63 -79,47 -36,-16 -99,-62 -133,-84 -35,-21 -41,-19 -85,47z"/>
   <path class="fil6" d="M698 745c47,-45 95,-91 125,-120 31,-29 44,-42 62,-38 19,4 43,26 40,50 -2,23 -30,49 -72,91 -42,41 -99,97 -141,111 -42,15 -71,-14 -109,-47 -38,-34 -85,-73 -133,-112 -15,-6 -30,-11 -45,-17 15,-26 30,-52 45,-78 12,1 24,3 62,29 38,27 102,79 166,131z"/>
   <path class="fil6" d="M206 509c26,-3 67,9 108,22 -17,25 -33,51 -50,77 -31,-9 -62,-17 -80,-27 -17,-9 -22,-20 -18,-35 3,-15 14,-33 40,-37z"/>
  </g>
 </g>
</svg>
